# xmcd
#
# Track frame offsets:
#	183
#	6895
#	15920
#	76075
#	84925
#	113595
#	185580
#	196183
#	247438
#	266070
#	277883
#	292575
#	305018
#	318485
#
# Disc length: 4423 seconds
#
# Revision: 0
# Processed by: cddbd v1.4PL0 Copyright (c) Steve Scherf et al.
# Submitted via: audiograbber 1.80.04
#
DISCID=ae11450e
DTITLE=Richard Wagner - Christoph von Dohnányi conducting The Wiener Philharmon
DTITLE=iker - Der Fligende Holländer
DYEAR=1994
DGENRE=Opera
TTITLE0=Act Two: Ach! Wo weilt sie
TTITLE1=Act Two: Senta! Wilst du mich verderben?
TTITLE2=Act Two: Bleib Senta! Bleib nur einen Augenblick!
TTITLE3=Act Two: Mein Kind, du siehst mich auf der Schwelle
TTITLE4=Act Two: Mögst du, mein Kind, den fremden Mann wilkommen heißen
TTITLE5=Act Two: Wie aus der Ferne längst vergang' ner Zeiten
TTITLE6=Act Two: Verzeiht! Mein Volk hält draußen sich nicht mer
TTITLE7=Act Three: Introduktion
TTITLE8=Act Three: Johohohe! Johohohe! Hoe! Hoe!
TTITLE9=Act Three: Was mußt' ich hören, Gott, was mußt' ich sehen!
TTITLE10=Act Three: Wilst jenes Tags du nicht dich mehr entsinnen
TTITLE11=Act Three: Verloren! Ach, verloren! Ewig verlornes Heil!
TTITLE12=Act Three: Frfahre das Geschick, vor dem ich dich bewahr'!
TTITLE13=Act Three: Du Kennst mich nicht, du ahnst nicht, wer ich bin!
EXTD=
EXTT0=
EXTT1=
EXTT2=
EXTT3=
EXTT4=
EXTT5=
EXTT6=
EXTT7=
EXTT8=
EXTT9=
EXTT10=
EXTT11=
EXTT12=
EXTT13=
PLAYORDER=
